<svg width="606" height="536" viewBox="0 0 606 536" fill="none" xmlns="http://www.w3.org/2000/svg">
<rect x="321.887" y="276.423" width="89" height="89" rx="44" fill="#7EB3FC" fill-opacity="0.5"/>
<rect width="55" height="55" rx="27.5" transform="matrix(0.850178 -0.526496 0.473963 0.880545 284.596 399.423)" fill="#FF9B06" fill-opacity="0.5"/>
<rect width="38.9367" height="40.324" rx="19.4683" transform="matrix(0.850178 0.526496 -0.473963 0.880545 357.781 434.423)" fill="#F94B4B" fill-opacity="0.5"/>
<rect x="430.887" y="364.423" width="89" height="89" rx="44" fill="#7EB3FC" fill-opacity="0.5"/>
<rect width="40" height="40" rx="20" transform="matrix(0.850178 0.526496 -0.473963 0.880545 571.025 129.923)" fill="#F94B4B" fill-opacity="0.5"/>
<rect width="55" height="55" rx="27.5" transform="matrix(0.850178 -0.526496 0.473963 0.880545 507.913 486.923)" fill="#FF9B06" fill-opacity="0.5"/>
<rect width="40" height="40" rx="20" transform="matrix(0.850178 0.526496 -0.473963 0.880545 527.459 31.9229)" fill="#F94B4B" fill-opacity="0.5"/>
<rect x="89" y="369.43" width="89" height="89" rx="44" transform="rotate(-180 89 369.43)" fill="#7EB3FC" fill-opacity="0.5"/>
<rect width="55" height="55" rx="27.5" transform="matrix(-0.850178 0.526496 -0.473963 -0.880545 126.292 246.43)" fill="#FF9B06" fill-opacity="0.5"/>
<rect x="418" y="171.43" width="89" height="89" rx="44" transform="rotate(-180 418 171.43)" fill="#7EB3FC" fill-opacity="0.5"/>
<rect width="55" height="55" rx="27.5" transform="matrix(-0.850178 0.526496 -0.473963 -0.880545 455.292 48.4299)" fill="#FF9B06" fill-opacity="0.5"/>
<rect width="40" height="40" rx="20" transform="matrix(-0.850178 -0.526496 0.473963 -0.880544 53.1063 211.43)" fill="#F94B4B" fill-opacity="0.5"/>
<g filter="url(#filter0_bd)">
<rect x="112" y="138.891" width="380.53" height="251.641" rx="15" fill="white" fill-opacity="0.5"/>
</g>
<g filter="url(#filter1_d)">
<rect x="322.212" y="173.415" width="74.4181" height="101.27" rx="15" fill="white" fill-opacity="0.4"/>
</g>
<g filter="url(#filter2_d)">
<rect x="138.085" y="173.415" width="153.439" height="101.27" rx="15" fill="white" fill-opacity="0.4"/>
</g>
<rect x="154.196" y="193.362" width="39.127" height="3.83598" fill="url(#paint0_linear)" fill-opacity="0.5"/>
<rect x="205.598" y="193.362" width="36.0582" height="3.83598" fill="url(#paint1_linear)" fill-opacity="0.5"/>
<rect x="161.1" y="204.87" width="16.1111" height="3.83598" fill="url(#paint2_linear)" fill-opacity="0.5"/>
<rect x="188.72" y="204.87" width="11.508" height="3.83598" fill="url(#paint3_linear)" fill-opacity="0.5"/>
<rect x="210.968" y="204.87" width="35.291" height="3.83598" fill="url(#paint4_linear)" fill-opacity="0.5"/>
<rect x="154.196" y="215.61" width="19.1799" height="3.83598" fill="url(#paint5_linear)" fill-opacity="0.5"/>
<rect x="184.884" y="215.61" width="32.9895" height="3.83598" fill="url(#paint6_linear)" fill-opacity="0.5"/>
<rect x="161.1" y="227.886" width="25.3175" height="3.83598" fill="url(#paint7_linear)" fill-opacity="0.5"/>
<rect x="200.228" y="227.886" width="52.9366" height="3.83598" fill="url(#paint8_linear)" fill-opacity="0.5"/>
<rect x="154.196" y="240.161" width="38.3598" height="3.83598" fill="url(#paint9_linear)" fill-opacity="0.5"/>
<rect x="205.598" y="240.161" width="11.508" height="3.83598" fill="url(#paint10_linear)" fill-opacity="0.5"/>
<rect x="229.381" y="240.161" width="48.3334" height="3.83598" fill="url(#paint11_linear)" fill-opacity="0.5"/>
<rect x="174.143" y="250.901" width="40.6614" height="3.83598" fill="url(#paint12_linear)" fill-opacity="0.5"/>
<g filter="url(#filter3_i)">
<g filter="url(#filter4_bd)">
<rect x="252.56" y="255.83" width="298.44" height="201.006" rx="15" fill="url(#paint13_linear)" fill-opacity="0.6"/>
</g>
<circle cx="283.248" cy="277.312" r="5.37027" fill="#EC6971"/>
<circle cx="301.989" cy="277.312" r="5.37027" fill="#EAA83C"/>
<circle cx="320.729" cy="277.312" r="5.37027" fill="#62D7A9"/>
<rect x="290.153" y="309.535" width="57.2233" height="5.61013" fill="url(#paint14_linear)" fill-opacity="0.5"/>
<rect x="365.329" y="309.534" width="52.7352" height="5.61013" fill="url(#paint15_linear)" fill-opacity="0.5"/>
<rect x="300.251" y="326.365" width="23.5625" height="5.61013" fill="url(#paint16_linear)" fill-opacity="0.5"/>
<rect x="340.644" y="326.365" width="16.8304" height="5.61013" fill="url(#paint17_linear)" fill-opacity="0.5"/>
<rect x="373.183" y="326.365" width="51.6132" height="5.61013" fill="url(#paint18_linear)" fill-opacity="0.5"/>
<rect x="290.153" y="342.073" width="28.0506" height="5.61013" fill="url(#paint19_linear)" fill-opacity="0.5"/>
<rect x="335.034" y="342.073" width="48.2471" height="5.61013" fill="url(#paint20_linear)" fill-opacity="0.5"/>
<rect x="300.251" y="360.025" width="37.0268" height="5.61013" fill="url(#paint21_linear)" fill-opacity="0.5"/>
<rect x="357.475" y="360.025" width="77.4197" height="5.61013" fill="url(#paint22_linear)" fill-opacity="0.5"/>
<rect x="290.153" y="377.978" width="56.1013" height="5.61013" fill="url(#paint23_linear)" fill-opacity="0.5"/>
<rect x="365.329" y="377.978" width="16.8304" height="5.61013" fill="url(#paint24_linear)" fill-opacity="0.5"/>
<rect x="400.112" y="377.978" width="70.6876" height="5.61013" fill="url(#paint25_linear)" fill-opacity="0.5"/>
<rect x="319.326" y="393.686" width="59.4673" height="5.61013" fill="url(#paint26_linear)" fill-opacity="0.5"/>
</g>
<g xmlns="http://www.w3.org/2000/svg" filter="url(#filter5_d)">
    <rect x="143.124" y="88" width="64.3424" height="64.4359" rx="7" fill="#004956"/>
    <path stroke="null" fill="#76e8cd" d="m198.73,127.6831l-2.29466,-18.26099c-0.61731,-4.91652 -4.99518,-8.62538 -10.18316,-8.62538l-21.91634,0c-5.18801,0 -9.56578,3.70886 -10.18304,8.62538l-2.29226,18.26099c-0.34878,2.77755 0.56573,5.57101 2.51161,7.66327c1.94348,2.09377 4.74032,3.29281 7.67143,3.29281l26.50326,0c2.92883,0 5.72555,-1.19904 7.67149,-3.29281c1.94356,-2.09169 2.86039,-4.88515 2.51167,-7.66327zm-6.28593,4.48976c-1.0416,1.12026 -2.47874,1.73644 -4.04522,1.73644l-26.20667,0c-1.56891,0 -3.00661,-0.61618 -4.04516,-1.73644c-1.04156,-1.12007 -1.5102,-2.55486 -1.32443,-4.04173l2.2665,-18.05628c0.32541,-2.59098 2.63386,-4.5481 5.36959,-4.5481l21.6713,0c2.73523,0 5.04417,1.95654 5.36969,4.5481l2.26888,18.05628c0.18567,1.48687 -0.28584,2.92166 -1.32447,4.04173z"/>
    <path stroke="null" fill="#76e8cd" d="m188.46233,122.07781c-0.36082,-0.52794 -0.91505,-0.89019 -1.56112,-1.0199c-0.64726,-0.1299 -1.30642,-0.01155 -1.85965,0.33233c-6.59855,4.1082 -13.02055,4.10763 -19.63187,-0.00057c-0.55314,-0.34388 -1.21414,-0.46223 -1.85957,-0.33119c-0.64603,0.13028 -1.19976,0.4931 -1.55993,1.02104c-0.36017,0.52813 -0.48363,1.15851 -0.347,1.77526c0.13663,0.61675 0.5166,1.14526 1.06973,1.48914c4.13147,2.56755 8.34323,3.86903 12.51839,3.86903c4.17594,0 8.38461,-1.30205 12.51016,-3.87017c0.55304,-0.34445 0.9325,-0.87352 1.06838,-1.49027c0.13667,-0.61618 0.01329,-1.24657 -0.34753,-1.7747z"/>
</g>
<defs>
<filter id="filter0_bd" x="62" y="98.8907" width="480.53" height="361.641" filterUnits="userSpaceOnUse" color-interpolation-filters="sRGB">
<feFlood flood-opacity="0" result="BackgroundImageFix"/>
<feGaussianBlur in="BackgroundImage" stdDeviation="20"/>
<feComposite in2="SourceAlpha" operator="in" result="effect1_backgroundBlur"/>
<feColorMatrix in="SourceAlpha" type="matrix" values="0 0 0 0 0 0 0 0 0 0 0 0 0 0 0 0 0 0 127 0"/>
<feOffset dy="20"/>
<feGaussianBlur stdDeviation="25"/>
<feColorMatrix type="matrix" values="0 0 0 0 0.1325 0 0 0 0 0.309167 0 0 0 0 0.6625 0 0 0 0.2 0"/>
<feBlend mode="normal" in2="effect1_backgroundBlur" result="effect2_dropShadow"/>
<feBlend mode="normal" in="SourceGraphic" in2="effect2_dropShadow" result="shape"/>
</filter>
<filter id="filter1_d" x="222.212" y="93.4146" width="274.418" height="301.27" filterUnits="userSpaceOnUse" color-interpolation-filters="sRGB">
<feFlood flood-opacity="0" result="BackgroundImageFix"/>
<feColorMatrix in="SourceAlpha" type="matrix" values="0 0 0 0 0 0 0 0 0 0 0 0 0 0 0 0 0 0 127 0"/>
<feOffset dy="20"/>
<feGaussianBlur stdDeviation="50"/>
<feColorMatrix type="matrix" values="0 0 0 0 0.1325 0 0 0 0 0.309167 0 0 0 0 0.6625 0 0 0 0.3 0"/>
<feBlend mode="normal" in2="BackgroundImageFix" result="effect1_dropShadow"/>
<feBlend mode="normal" in="SourceGraphic" in2="effect1_dropShadow" result="shape"/>
</filter>
<filter id="filter2_d" x="38.0847" y="93.4146" width="353.439" height="301.27" filterUnits="userSpaceOnUse" color-interpolation-filters="sRGB">
<feFlood flood-opacity="0" result="BackgroundImageFix"/>
<feColorMatrix in="SourceAlpha" type="matrix" values="0 0 0 0 0 0 0 0 0 0 0 0 0 0 0 0 0 0 127 0"/>
<feOffset dy="20"/>
<feGaussianBlur stdDeviation="50"/>
<feColorMatrix type="matrix" values="0 0 0 0 0.1325 0 0 0 0 0.309167 0 0 0 0 0.6625 0 0 0 0.3 0"/>
<feBlend mode="normal" in2="BackgroundImageFix" result="effect1_dropShadow"/>
<feBlend mode="normal" in="SourceGraphic" in2="effect1_dropShadow" result="shape"/>
</filter>
<filter id="filter3_i" x="252.56" y="255.83" width="300.44" height="202.006" filterUnits="userSpaceOnUse" color-interpolation-filters="sRGB">
<feFlood flood-opacity="0" result="BackgroundImageFix"/>
<feBlend mode="normal" in="SourceGraphic" in2="BackgroundImageFix" result="shape"/>
<feColorMatrix in="SourceAlpha" type="matrix" values="0 0 0 0 0 0 0 0 0 0 0 0 0 0 0 0 0 0 127 0" result="hardAlpha"/>
<feOffset dx="2" dy="1"/>
<feGaussianBlur stdDeviation="2"/>
<feComposite in2="hardAlpha" operator="arithmetic" k2="-1" k3="1"/>
<feColorMatrix type="matrix" values="0 0 0 0 1 0 0 0 0 1 0 0 0 0 1 0 0 0 0.04 0"/>
<feBlend mode="normal" in2="shape" result="effect1_innerShadow"/>
</filter>
<filter id="filter4_bd" x="202.56" y="215.83" width="398.44" height="301.006" filterUnits="userSpaceOnUse" color-interpolation-filters="sRGB">
<feFlood flood-opacity="0" result="BackgroundImageFix"/>
<feGaussianBlur in="BackgroundImage" stdDeviation="10"/>
<feComposite in2="SourceAlpha" operator="in" result="effect1_backgroundBlur"/>
<feColorMatrix in="SourceAlpha" type="matrix" values="0 0 0 0 0 0 0 0 0 0 0 0 0 0 0 0 0 0 127 0"/>
<feOffset dy="10"/>
<feGaussianBlur stdDeviation="25"/>
<feColorMatrix type="matrix" values="0 0 0 0 0.1325 0 0 0 0 0.309167 0 0 0 0 0.6625 0 0 0 0.2 0"/>
<feBlend mode="normal" in2="effect1_backgroundBlur" result="effect2_dropShadow"/>
<feBlend mode="normal" in="SourceGraphic" in2="effect2_dropShadow" result="shape"/>
</filter>
<filter id="filter5_d" x="83.1235" y="28" width="184.342" height="195.436" filterUnits="userSpaceOnUse" color-interpolation-filters="sRGB">
<feFlood flood-opacity="0" result="BackgroundImageFix"/>
<feColorMatrix in="SourceAlpha" type="matrix" values="0 0 0 0 0 0 0 0 0 0 0 0 0 0 0 0 0 0 127 0"/>
<feOffset/>
<feGaussianBlur stdDeviation="30"/>
<feColorMatrix type="matrix" values="0 0 0 0 0.388247 0 0 0 0 0.870833 0 0 0 0 0.803032 0 0 0 0.4 0"/>
<feBlend mode="normal" in2="BackgroundImageFix" result="effect1_dropShadow"/>
<feBlend mode="normal" in="SourceGraphic" in2="effect1_dropShadow" result="shape"/>
</filter>
<linearGradient id="paint0_linear" x1="150.989" y1="192.475" x2="191.296" y2="217.783" gradientUnits="userSpaceOnUse">
<stop stop-color="#A2FACF"/>
<stop offset="1" stop-color="#64ACFF"/>
</linearGradient>
<linearGradient id="paint1_linear" x1="202.643" y1="192.474" x2="241.442" y2="214.925" gradientUnits="userSpaceOnUse">
<stop stop-color="#A2FACF"/>
<stop offset="1" stop-color="#64ACFF"/>
</linearGradient>
<linearGradient id="paint2_linear" x1="159.78" y1="203.982" x2="181.47" y2="209.59" gradientUnits="userSpaceOnUse">
<stop stop-color="#A2FACF"/>
<stop offset="1" stop-color="#64ACFF"/>
</linearGradient>
<linearGradient id="paint3_linear" x1="187.776" y1="203.982" x2="203.76" y2="206.934" gradientUnits="userSpaceOnUse">
<stop stop-color="#A2FACF"/>
<stop offset="1" stop-color="#64ACFF"/>
</linearGradient>
<linearGradient id="paint4_linear" x1="208.076" y1="203.982" x2="246.455" y2="225.717" gradientUnits="userSpaceOnUse">
<stop stop-color="#A2FACF"/>
<stop offset="1" stop-color="#64ACFF"/>
</linearGradient>
<linearGradient id="paint5_linear" x1="152.624" y1="214.723" x2="177.788" y2="222.468" gradientUnits="userSpaceOnUse">
<stop stop-color="#A2FACF"/>
<stop offset="1" stop-color="#64ACFF"/>
</linearGradient>
<linearGradient id="paint6_linear" x1="182.18" y1="214.723" x2="219.19" y2="234.316" gradientUnits="userSpaceOnUse">
<stop stop-color="#A2FACF"/>
<stop offset="1" stop-color="#64ACFF"/>
</linearGradient>
<linearGradient id="paint7_linear" x1="159.026" y1="226.998" x2="190.237" y2="239.679" gradientUnits="userSpaceOnUse">
<stop stop-color="#A2FACF"/>
<stop offset="1" stop-color="#64ACFF"/>
</linearGradient>
<linearGradient id="paint8_linear" x1="195.889" y1="226.998" x2="240.052" y2="264.514" gradientUnits="userSpaceOnUse">
<stop stop-color="#A2FACF"/>
<stop offset="1" stop-color="#64ACFF"/>
</linearGradient>
<linearGradient id="paint9_linear" x1="151.052" y1="239.273" x2="191.007" y2="263.869" gradientUnits="userSpaceOnUse">
<stop stop-color="#A2FACF"/>
<stop offset="1" stop-color="#64ACFF"/>
</linearGradient>
<linearGradient id="paint10_linear" x1="204.655" y1="239.273" x2="220.638" y2="242.225" gradientUnits="userSpaceOnUse">
<stop stop-color="#A2FACF"/>
<stop offset="1" stop-color="#64ACFF"/>
</linearGradient>
<linearGradient id="paint11_linear" x1="225.42" y1="239.273" x2="268.765" y2="272.892" gradientUnits="userSpaceOnUse">
<stop stop-color="#A2FACF"/>
<stop offset="1" stop-color="#64ACFF"/>
</linearGradient>
<linearGradient id="paint12_linear" x1="170.81" y1="250.014" x2="211.772" y2="276.742" gradientUnits="userSpaceOnUse">
<stop stop-color="#A2FACF"/>
<stop offset="1" stop-color="#64ACFF"/>
</linearGradient>
<linearGradient id="paint13_linear" x1="428" y1="350.5" x2="551" y2="456.836" gradientUnits="userSpaceOnUse">
<stop stop-color="white"/>
<stop offset="1" stop-color="#B9CCFF"/>
</linearGradient>
<linearGradient id="paint14_linear" x1="285.464" y1="308.237" x2="344.412" y2="345.25" gradientUnits="userSpaceOnUse">
<stop stop-color="#A2FACF"/>
<stop offset="1" stop-color="#64ACFF"/>
</linearGradient>
<linearGradient id="paint15_linear" x1="361.007" y1="308.236" x2="417.75" y2="341.07" gradientUnits="userSpaceOnUse">
<stop stop-color="#A2FACF"/>
<stop offset="1" stop-color="#64ACFF"/>
</linearGradient>
<linearGradient id="paint16_linear" x1="298.32" y1="325.067" x2="330.042" y2="333.268" gradientUnits="userSpaceOnUse">
<stop stop-color="#A2FACF"/>
<stop offset="1" stop-color="#64ACFF"/>
</linearGradient>
<linearGradient id="paint17_linear" x1="339.265" y1="325.067" x2="362.641" y2="329.384" gradientUnits="userSpaceOnUse">
<stop stop-color="#A2FACF"/>
<stop offset="1" stop-color="#64ACFF"/>
</linearGradient>
<linearGradient id="paint18_linear" x1="368.953" y1="325.067" x2="425.082" y2="356.854" gradientUnits="userSpaceOnUse">
<stop stop-color="#A2FACF"/>
<stop offset="1" stop-color="#64ACFF"/>
</linearGradient>
<linearGradient id="paint19_linear" x1="287.854" y1="340.775" x2="324.657" y2="352.102" gradientUnits="userSpaceOnUse">
<stop stop-color="#A2FACF"/>
<stop offset="1" stop-color="#64ACFF"/>
</linearGradient>
<linearGradient id="paint20_linear" x1="331.08" y1="340.775" x2="385.207" y2="369.43" gradientUnits="userSpaceOnUse">
<stop stop-color="#A2FACF"/>
<stop offset="1" stop-color="#64ACFF"/>
</linearGradient>
<linearGradient id="paint21_linear" x1="297.217" y1="358.728" x2="342.863" y2="377.273" gradientUnits="userSpaceOnUse">
<stop stop-color="#A2FACF"/>
<stop offset="1" stop-color="#64ACFF"/>
</linearGradient>
<linearGradient id="paint22_linear" x1="351.13" y1="358.728" x2="415.718" y2="413.594" gradientUnits="userSpaceOnUse">
<stop stop-color="#A2FACF"/>
<stop offset="1" stop-color="#64ACFF"/>
</linearGradient>
<linearGradient id="paint23_linear" x1="285.555" y1="376.68" x2="343.99" y2="412.651" gradientUnits="userSpaceOnUse">
<stop stop-color="#A2FACF"/>
<stop offset="1" stop-color="#64ACFF"/>
</linearGradient>
<linearGradient id="paint24_linear" x1="363.949" y1="376.68" x2="387.325" y2="380.997" gradientUnits="userSpaceOnUse">
<stop stop-color="#A2FACF"/>
<stop offset="1" stop-color="#64ACFF"/>
</linearGradient>
<linearGradient id="paint25_linear" x1="394.319" y1="376.68" x2="457.71" y2="425.848" gradientUnits="userSpaceOnUse">
<stop stop-color="#A2FACF"/>
<stop offset="1" stop-color="#64ACFF"/>
</linearGradient>
<linearGradient id="paint26_linear" x1="314.452" y1="392.388" x2="374.358" y2="431.477" gradientUnits="userSpaceOnUse">
<stop stop-color="#A2FACF"/>
<stop offset="1" stop-color="#64ACFF"/>
</linearGradient>
</defs>
</svg>
